<svg width="1215" height="333" viewBox="0 0 1215 333" fill="none" xmlns="http://www.w3.org/2000/svg">
<rect x="24.8723" y="22" width="297.255" height="289" rx="72" fill="#1E3A8A"/>
<path d="M129.595 66.1108C130.17 66.1087 130.17 66.1087 130.757 66.1065C132.044 66.1024 133.331 66.1017 134.617 66.101C135.54 66.0988 136.462 66.0965 137.384 66.0939C139.89 66.0877 142.397 66.0847 144.904 66.0826C146.471 66.0812 148.038 66.0793 149.605 66.0772C154.511 66.0707 159.416 66.0661 164.321 66.0643C169.979 66.0622 175.637 66.0539 181.295 66.0402C185.67 66.03 190.046 66.0253 194.422 66.0246C197.034 66.0241 199.646 66.0214 202.258 66.0129C204.717 66.0051 207.176 66.0041 209.636 66.0083C210.535 66.0086 211.435 66.0066 212.335 66.0019C219.394 65.9674 225.776 66.3484 231.216 71.4217C233.195 73.5439 234.795 75.7212 235.813 78.4514C235.974 78.8783 236.135 79.3052 236.3 79.7451C237.095 82.5865 236.89 85.567 236.883 88.4924C236.885 89.1841 236.887 89.8758 236.89 90.5675C236.896 92.4644 236.896 94.3612 236.894 96.2581C236.894 98.3055 236.899 100.353 236.904 102.4C236.912 106.41 236.914 110.421 236.915 114.431C236.915 117.691 236.917 120.952 236.92 124.213C236.929 133.463 236.933 142.712 236.932 151.962C236.932 152.46 236.932 152.959 236.932 153.472C236.932 153.972 236.932 154.471 236.932 154.985C236.932 163.07 236.941 171.156 236.954 179.241C236.968 187.548 236.974 195.855 236.973 204.162C236.973 208.823 236.975 213.485 236.986 218.147C236.994 222.117 236.996 226.086 236.99 230.056C236.987 232.08 236.987 234.104 236.995 236.128C237.002 237.984 237.001 239.84 236.993 241.697C236.991 242.365 236.993 243.033 236.998 243.701C237.042 249.626 236.249 255.293 232.036 259.733C231.736 260.058 231.435 260.383 231.125 260.718C225.652 266.111 219.402 266.216 212.196 266.168C211.255 266.17 210.313 266.174 209.372 266.178C206.832 266.187 204.293 266.181 201.753 266.172C199.086 266.164 196.42 266.168 193.753 266.17C189.278 266.173 184.803 266.165 180.327 266.152C175.162 266.137 169.997 266.137 164.832 266.145C159.85 266.152 154.868 266.149 149.886 266.141C147.772 266.138 145.657 266.138 143.543 266.142C141.051 266.145 138.56 266.14 136.068 266.127C135.157 266.124 134.246 266.124 133.334 266.127C126.204 266.151 120.85 265.399 115.494 260.31C112.099 256.74 110.185 252.346 110.176 247.434C110.174 246.845 110.172 246.255 110.17 245.648C110.17 244.993 110.17 244.338 110.17 243.683C110.169 242.988 110.167 242.293 110.165 241.598C110.16 239.685 110.159 237.772 110.157 235.86C110.155 233.798 110.151 231.736 110.147 229.674C110.138 224.693 110.133 219.712 110.129 214.731C110.127 212.385 110.124 210.039 110.121 207.694C110.113 199.895 110.107 192.096 110.103 184.298C110.102 182.274 110.101 180.25 110.1 178.226C110.1 177.723 110.1 177.22 110.1 176.702C110.096 168.555 110.084 160.408 110.069 152.26C110.053 143.895 110.044 135.53 110.043 127.164C110.042 122.468 110.038 117.771 110.026 113.075C110.015 109.075 110.012 105.075 110.016 101.075C110.018 99.0345 110.018 96.9946 110.008 94.9545C110 93.0845 110.001 91.2148 110.008 89.3448C110.009 88.6706 110.007 87.9964 110.001 87.3223C109.95 80.7755 111.385 76.0541 115.921 71.3092C118.348 68.9853 120.723 67.6297 123.93 66.6492C124.186 66.5659 124.442 66.4827 124.705 66.3969C126.33 66.0762 127.946 66.1089 129.595 66.1108Z" fill="#1E3A8A"/>
<path d="M129.595 66.1108C130.17 66.1087 130.17 66.1087 130.757 66.1065C132.044 66.1024 133.331 66.1017 134.617 66.101C135.54 66.0988 136.462 66.0965 137.384 66.0939C139.89 66.0877 142.397 66.0847 144.904 66.0826C146.471 66.0812 148.038 66.0793 149.605 66.0772C154.511 66.0707 159.416 66.0661 164.321 66.0643C169.979 66.0622 175.637 66.0539 181.295 66.0402C185.67 66.03 190.046 66.0253 194.422 66.0246C197.034 66.0241 199.646 66.0214 202.258 66.0129C204.717 66.0051 207.176 66.0041 209.636 66.0083C210.535 66.0086 211.435 66.0066 212.335 66.0019C219.394 65.9674 225.776 66.3484 231.216 71.4217C233.195 73.5439 234.795 75.7212 235.813 78.4514C235.974 78.8783 236.135 79.3052 236.3 79.7451C237.095 82.5865 236.89 85.567 236.883 88.4924C236.885 89.1841 236.887 89.8758 236.89 90.5675C236.896 92.4644 236.896 94.3612 236.894 96.2581C236.894 98.3055 236.899 100.353 236.904 102.4C236.912 106.41 236.914 110.421 236.915 114.431C236.915 117.691 236.917 120.952 236.92 124.213C236.929 133.463 236.933 142.712 236.932 151.962C236.932 152.46 236.932 152.959 236.932 153.472C236.932 153.972 236.932 154.471 236.932 154.985C236.932 163.07 236.941 171.156 236.954 179.241C236.968 187.548 236.974 195.855 236.973 204.162C236.973 208.823 236.975 213.485 236.986 218.147C236.994 222.117 236.996 226.086 236.99 230.056C236.987 232.08 236.987 234.104 236.995 236.128C237.002 237.984 237.001 239.84 236.993 241.697C236.991 242.365 236.993 243.033 236.998 243.701C237.042 249.626 236.249 255.293 232.036 259.733C231.736 260.058 231.435 260.383 231.125 260.718C225.652 266.111 219.402 266.216 212.196 266.168C211.255 266.17 210.313 266.174 209.372 266.178C206.832 266.187 204.293 266.181 201.753 266.172C199.086 266.164 196.42 266.168 193.753 266.17C189.278 266.173 184.803 266.165 180.327 266.152C175.162 266.137 169.997 266.137 164.832 266.145C159.85 266.152 154.868 266.149 149.886 266.141C147.772 266.138 145.657 266.138 143.543 266.142C141.051 266.145 138.56 266.14 136.068 266.127C135.157 266.124 134.246 266.124 133.334 266.127C126.204 266.151 120.85 265.399 115.494 260.31C112.099 256.74 110.185 252.346 110.176 247.434C110.174 246.845 110.172 246.255 110.17 245.648C110.17 244.993 110.17 244.338 110.17 243.683C110.169 242.988 110.167 242.293 110.165 241.598C110.16 239.685 110.159 237.772 110.157 235.86C110.155 233.798 110.151 231.736 110.147 229.674C110.138 224.693 110.133 219.712 110.129 214.731C110.127 212.385 110.124 210.039 110.121 207.694C110.113 199.895 110.107 192.096 110.103 184.298C110.102 182.274 110.101 180.25 110.1 178.226C110.1 177.723 110.1 177.22 110.1 176.702C110.096 168.555 110.084 160.408 110.069 152.26C110.053 143.895 110.044 135.53 110.043 127.164C110.042 122.468 110.038 117.771 110.026 113.075C110.015 109.075 110.012 105.075 110.016 101.075C110.018 99.0345 110.018 96.9946 110.008 94.9545C110 93.0845 110.001 91.2148 110.008 89.3448C110.009 88.6706 110.007 87.9964 110.001 87.3223C109.95 80.7755 111.385 76.0541 115.921 71.3092C118.348 68.9853 120.723 67.6297 123.93 66.6492C124.186 66.5659 124.442 66.4827 124.705 66.3969C126.33 66.0762 127.946 66.1089 129.595 66.1108ZM120.153 76.0909C118.011 78.8617 116.791 80.9855 116.786 84.5344C116.783 85.1181 116.781 85.7018 116.779 86.3032C116.779 86.9544 116.779 87.6057 116.779 88.2569C116.778 88.9461 116.776 89.6352 116.774 90.3243C116.769 92.2228 116.768 94.1213 116.766 96.0198C116.765 98.0656 116.76 100.111 116.756 102.157C116.747 107.101 116.742 112.044 116.738 116.987C116.736 119.315 116.733 121.642 116.731 123.97C116.723 131.707 116.716 139.444 116.712 147.181C116.711 149.189 116.711 151.198 116.71 153.206C116.709 153.705 116.709 154.204 116.709 154.719C116.705 162.804 116.693 170.889 116.678 178.974C116.662 187.274 116.654 195.573 116.652 203.873C116.651 208.533 116.647 213.194 116.635 217.854C116.625 221.823 116.621 225.793 116.625 229.762C116.628 231.787 116.627 233.811 116.617 235.836C116.609 237.691 116.61 239.547 116.617 241.402C116.618 242.071 116.616 242.741 116.61 243.41C116.574 247.985 117.131 251.487 119.563 255.396C122.78 258.523 125.676 259.331 130.073 259.33C130.65 259.333 130.65 259.333 131.238 259.336C132.527 259.341 133.816 259.343 135.105 259.344C136.028 259.347 136.952 259.351 137.875 259.354C140.91 259.364 143.944 259.369 146.979 259.373C148.024 259.375 149.069 259.377 150.114 259.379C155.024 259.388 159.934 259.395 164.844 259.399C170.51 259.403 176.175 259.416 181.841 259.435C186.222 259.449 190.602 259.456 194.982 259.458C197.598 259.459 200.214 259.463 202.829 259.475C205.291 259.486 207.753 259.488 210.214 259.483C211.116 259.483 212.018 259.486 212.92 259.492C219.221 259.678 219.221 259.678 224.955 257.372C225.221 257.203 225.487 257.034 225.761 256.86C228.196 255.093 229.227 252.584 230.148 249.819C230.193 248.896 230.21 247.972 230.211 247.048C230.215 246.175 230.215 246.175 230.218 245.284C230.218 244.635 230.218 243.985 230.218 243.336C230.219 242.649 230.221 241.962 230.223 241.274C230.228 239.381 230.229 237.488 230.231 235.595C230.232 233.555 230.237 231.515 230.241 229.475C230.25 224.546 230.255 219.616 230.259 214.687C230.261 212.366 230.264 210.045 230.266 207.724C230.274 200.009 230.281 192.294 230.285 184.579C230.286 182.576 230.286 180.573 230.287 178.571C230.288 178.073 230.288 177.575 230.288 177.062C230.292 169 230.304 160.938 230.319 152.876C230.335 144.6 230.343 136.323 230.345 128.047C230.346 123.4 230.35 118.753 230.362 114.106C230.372 110.148 230.376 106.19 230.372 102.232C230.369 100.213 230.37 98.1937 230.379 96.1747C230.388 94.3246 230.387 92.4746 230.38 90.6244C230.379 89.9569 230.381 89.2894 230.387 88.6219C230.424 83.8662 229.99 79.8668 226.814 76.1499C222.236 72.0783 216.427 72.5521 210.704 72.6683C209.886 72.6778 209.069 72.6864 208.251 72.6941C206.265 72.7147 204.28 72.7472 202.295 72.7863C202.24 73.1079 202.184 73.4296 202.126 73.7609C202.048 74.1842 201.97 74.6074 201.89 75.0435C201.777 75.672 201.777 75.672 201.661 76.3131C201.171 78.2006 200.435 79.027 198.991 80.3397C196.556 81.4138 194.296 81.4238 191.686 81.421C191.244 81.4242 190.802 81.4274 190.347 81.4307C188.892 81.4396 187.436 81.4415 185.981 81.4425C184.966 81.4455 183.952 81.4487 182.937 81.452C180.812 81.4577 178.687 81.4594 176.562 81.4589C173.842 81.4588 171.122 81.4717 168.403 81.4879C166.308 81.4984 164.213 81.5003 162.118 81.4998C161.115 81.5009 160.112 81.5051 159.11 81.5124C157.706 81.5217 156.304 81.5189 154.9 81.5133C154.488 81.5186 154.077 81.5239 153.652 81.5293C150.914 81.5012 149.306 80.9905 147.062 79.3955C145.703 77.333 145.279 75.1554 144.702 72.7863C142.292 72.7511 139.882 72.7255 137.472 72.7085C136.654 72.7014 135.836 72.6918 135.018 72.6795C133.835 72.6621 132.653 72.6542 131.47 72.648C131.11 72.6407 130.75 72.6334 130.379 72.6259C126.627 72.6247 123.053 73.6424 120.153 76.0909Z" fill="#F8F0E3"/>
<path d="M193.92 111.179C200.952 116.792 207.488 124.244 207.488 133.214C207.488 133.993 207.488 134.772 207.488 135.574C185.211 135.574 162.933 135.574 139.981 135.574C141.885 125.104 146.271 116.898 154.816 110.432C166.551 102.49 182.476 102.753 193.92 111.179Z" fill="#F9F0E1"/>
<path d="M135.459 158.173C136.005 158.172 136.552 158.17 137.115 158.169C137.71 158.17 138.305 158.171 138.918 158.172C139.524 158.171 140.13 158.171 140.754 158.17C142.039 158.17 143.323 158.171 144.607 158.173C146.257 158.175 147.906 158.174 149.556 158.171C151.124 158.169 152.692 158.17 154.261 158.172C154.856 158.171 155.451 158.17 156.064 158.169C156.611 158.17 157.157 158.172 157.72 158.173C158.204 158.174 158.688 158.174 159.187 158.174C160.28 158.234 160.28 158.234 160.752 158.706C160.796 159.59 160.807 160.475 160.806 161.36C160.806 161.927 160.805 162.494 160.805 163.078C160.803 163.696 160.801 164.313 160.798 164.949C160.797 165.583 160.796 166.217 160.796 166.852C160.794 168.524 160.79 170.197 160.784 171.869C160.78 173.575 160.777 175.28 160.775 176.986C160.77 180.334 160.762 183.683 160.752 187.032C157.129 187.043 153.505 187.051 149.882 187.056C148.199 187.059 146.517 187.062 144.835 187.067C142.903 187.073 140.97 187.076 139.038 187.078C138.128 187.081 138.128 187.081 137.199 187.085C136.363 187.085 136.363 187.085 135.51 187.085C134.769 187.087 134.769 187.087 134.013 187.088C132.899 187.032 132.899 187.032 132.427 186.56C132.38 185.693 132.367 184.824 132.366 183.957C132.365 183.401 132.363 182.844 132.362 182.271C132.363 181.666 132.363 181.061 132.364 180.437C132.364 179.821 132.364 179.204 132.363 178.569C132.362 177.263 132.363 175.956 132.366 174.65C132.368 172.972 132.367 171.294 132.364 169.615C132.362 168.02 132.363 166.424 132.364 164.829C132.364 164.223 132.363 163.618 132.362 162.994C132.363 162.438 132.365 161.882 132.366 161.309C132.366 160.817 132.367 160.325 132.367 159.817C132.48 157.721 133.624 158.175 135.459 158.173Z" fill="#F3EADC"/>
<path d="M190.178 158.173C190.715 158.171 191.252 158.17 191.806 158.168C192.39 158.169 192.975 158.17 193.577 158.171C194.173 158.171 194.768 158.17 195.382 158.17C196.644 158.17 197.906 158.17 199.168 158.172C200.789 158.175 202.41 158.174 204.031 158.171C205.572 158.169 207.113 158.17 208.654 158.171C209.239 158.17 209.824 158.169 210.426 158.168C210.963 158.17 211.501 158.171 212.054 158.173C212.53 158.173 213.005 158.174 213.495 158.174C214.57 158.234 214.57 158.234 215.042 158.706C215.089 159.573 215.103 160.441 215.103 161.309C215.105 161.865 215.106 162.421 215.108 162.994C215.107 163.599 215.106 164.205 215.105 164.828C215.105 165.445 215.106 166.061 215.106 166.696C215.107 168.003 215.106 169.309 215.104 170.616C215.101 172.294 215.103 173.972 215.106 175.65C215.108 177.246 215.106 178.841 215.105 180.437C215.106 181.042 215.107 181.647 215.108 182.271C215.106 183.105 215.106 183.105 215.103 183.956C215.103 184.449 215.103 184.941 215.102 185.448C215.042 186.559 215.042 186.559 214.57 187.031C213.715 187.076 212.859 187.087 212.003 187.085C211.181 187.085 211.181 187.085 210.342 187.085C209.447 187.081 209.447 187.081 208.535 187.077C207.928 187.077 207.32 187.076 206.695 187.075C205.078 187.074 203.462 187.069 201.845 187.064C200.197 187.059 198.548 187.057 196.899 187.054C193.663 187.049 190.426 187.041 187.19 187.031C187.179 183.346 187.17 179.661 187.165 175.976C187.163 174.265 187.159 172.554 187.154 170.843C187.149 169.194 187.146 167.544 187.145 165.894C187.143 164.955 187.14 164.017 187.136 163.078C187.136 162.511 187.136 161.944 187.136 161.36C187.135 160.858 187.134 160.355 187.133 159.838C187.238 157.736 188.331 158.174 190.178 158.173Z" fill="#F6EDDF"/>
<path d="M132.427 209.219C141.618 209.219 150.81 209.219 160.279 209.219C160.83 221.89 160.83 221.89 160.813 228.131C160.81 229.261 160.813 230.39 160.816 231.519C160.816 232.243 160.815 232.966 160.814 233.69C160.815 234.025 160.816 234.36 160.817 234.706C160.806 237.018 160.806 237.018 160.279 237.544C159.41 237.588 158.539 237.599 157.669 237.598C156.821 237.598 156.821 237.598 155.956 237.597C155.357 237.595 154.758 237.593 154.141 237.59C153.594 237.59 153.046 237.589 152.483 237.589C150.43 237.586 148.377 237.58 146.324 237.574C139.445 237.559 139.445 237.559 132.427 237.544C132.427 228.197 132.427 218.85 132.427 209.219Z" fill="#F5EDE1"/>
<path d="M137.358 139.288C137.68 139.287 138.001 139.286 138.333 139.285C139.418 139.282 140.504 139.282 141.59 139.283C142.365 139.281 143.141 139.28 143.916 139.278C146.028 139.274 148.139 139.273 150.251 139.272C152.011 139.272 153.77 139.27 155.53 139.268C159.681 139.265 163.831 139.263 167.981 139.264C172.269 139.264 176.557 139.259 180.846 139.252C184.521 139.245 188.197 139.243 191.872 139.243C194.07 139.243 196.268 139.242 198.466 139.237C200.532 139.232 202.599 139.232 204.665 139.236C205.425 139.236 206.185 139.235 206.946 139.232C207.98 139.229 209.014 139.231 210.048 139.235C210.918 139.234 210.918 139.234 211.806 139.234C213.152 139.351 213.624 139.243 214.096 140.295C214.026 141.907 213.83 142.856 212.847 144.149C211.377 145.296 210.494 145.256 208.639 145.262C208.329 145.266 208.018 145.27 207.699 145.273C206.659 145.283 205.621 145.279 204.582 145.276C203.836 145.28 203.091 145.285 202.346 145.29C200.322 145.303 198.298 145.303 196.274 145.301C194.585 145.3 192.895 145.305 191.206 145.309C187.221 145.32 183.235 145.32 179.25 145.314C175.138 145.309 171.026 145.32 166.914 145.34C163.384 145.357 159.854 145.363 156.324 145.359C154.215 145.358 152.107 145.36 149.998 145.373C148.015 145.385 146.033 145.383 144.05 145.371C143.323 145.369 142.595 145.371 141.868 145.379C136.397 145.434 136.397 145.434 134.761 144.409C133.717 143.235 133.359 142.428 133.429 140.856C134.24 138.83 135.28 139.291 137.358 139.288Z" fill="#FAF2E5"/>
<path d="M138.092 214.885C143.701 214.885 149.309 214.885 155.087 214.885C155.087 220.649 155.087 226.413 155.087 232.352C149.479 232.352 143.871 232.352 138.092 232.352C138.092 226.588 138.092 220.824 138.092 214.885Z" fill="#1E3A8A"/>
<path d="M138.092 163.899C143.701 163.899 149.309 163.899 155.087 163.899C155.087 169.663 155.087 175.427 155.087 181.366C149.479 181.366 143.871 181.366 138.092 181.366C138.092 175.602 138.092 169.838 138.092 163.899Z" fill="#1E3A8A"/>
<path d="M195.74 163.835C196.328 163.838 196.328 163.838 196.927 163.841C197.294 163.839 197.66 163.837 198.037 163.835C201.691 163.841 205.13 163.841 208.906 163.841C208.906 169.605 208.906 175.9 208.906 181.839C203.454 181.839 198.001 181.839 192.384 181.839C192.373 179.36 192.363 176.881 192.358 174.402C192.355 173.558 192.352 172.714 192.348 171.87C192.342 170.66 192.34 169.449 192.337 168.239C192.335 167.859 192.333 167.479 192.33 167.088C192.33 166.183 192.354 164.805 192.384 163.9C193.328 163.835 194.557 163.837 195.74 163.835Z" fill="#1E3A8A"/>
<path d="M176.802 186.56C178.515 186.56 180.229 186.56 181.995 186.56C182.15 192.168 182.306 197.777 182.467 203.555C185.894 203.711 189.321 203.867 192.853 204.027C192.853 205.741 192.853 207.455 192.853 209.22C194.051 209.19 195.25 209.159 196.448 209.128C197.573 209.22 197.573 209.22 198.518 210.164C198.625 211.225 198.625 211.225 198.61 212.529C198.607 212.994 198.604 213.46 198.6 213.939C198.593 214.427 198.585 214.914 198.577 215.416C198.572 215.908 198.568 216.399 198.564 216.905C198.552 218.12 198.537 219.335 198.518 220.55C197.129 221.013 196.24 221.077 194.794 221.069C194.352 221.067 193.909 221.066 193.453 221.064C192.761 221.058 192.761 221.058 192.056 221.052C191.589 221.05 191.123 221.048 190.642 221.046C189.491 221.04 188.339 221.031 187.188 221.022C187.188 218.997 187.188 216.972 187.188 214.885C189.057 214.885 190.926 214.885 192.853 214.885C192.853 213.172 192.853 211.458 192.853 209.692C192.127 209.696 192.127 209.696 191.387 209.7C189.598 209.708 187.809 209.714 186.021 209.718C185.246 209.721 184.47 209.724 183.695 209.728C182.583 209.734 181.471 209.736 180.359 209.738C180.01 209.741 179.662 209.743 179.303 209.746C178.469 209.746 177.635 209.722 176.802 209.692C176.053 208.943 176.27 208.176 176.269 207.137C176.266 206.473 176.266 206.473 176.264 205.796C176.265 205.315 176.266 204.833 176.267 204.337C176.267 203.846 176.266 203.356 176.266 202.85C176.265 201.81 176.266 200.771 176.268 199.731C176.271 198.133 176.268 196.535 176.265 194.938C176.266 193.93 176.266 192.923 176.267 191.915C176.266 191.434 176.265 190.952 176.264 190.456C176.266 190.014 176.267 189.571 176.269 189.115C176.269 188.723 176.269 188.332 176.27 187.928C176.33 187.032 176.33 187.032 176.802 186.56Z" fill="#F4ECE0"/>
<path d="M198.047 192.224C201.786 192.224 205.525 192.224 209.377 192.224C209.377 194.094 209.377 195.963 209.377 197.889C210.648 197.875 210.648 197.875 211.944 197.86C212.82 197.85 213.695 197.855 214.57 197.889C215.388 198.707 215.103 199.76 215.108 200.85C215.107 201.197 215.106 201.544 215.105 201.902C215.105 202.256 215.106 202.611 215.106 202.976C215.107 203.727 215.106 204.478 215.104 205.229C215.101 206.382 215.104 207.535 215.107 208.688C215.106 209.416 215.106 210.144 215.105 210.872C215.106 211.219 215.107 211.566 215.108 211.924C215.096 214.358 215.096 214.358 214.57 214.884C213.706 214.931 212.839 214.945 211.974 214.943C211.501 214.944 211.029 214.946 210.543 214.947C209.377 214.884 209.377 214.884 208.905 214.412C208.863 213.222 208.851 212.045 208.859 210.855C208.86 210.499 208.86 210.144 208.861 209.777C208.864 208.637 208.87 207.497 208.876 206.357C208.878 205.586 208.88 204.815 208.882 204.044C208.887 202.15 208.896 200.256 208.905 198.361C208.494 198.364 208.083 198.367 207.659 198.37C207.114 198.372 206.57 198.374 206.008 198.376C205.47 198.379 204.933 198.382 204.379 198.384C202.243 198.354 200.167 198.142 198.047 197.889C198.047 196.02 198.047 194.15 198.047 192.224Z" fill="#F6EFE4"/>
<path d="M175.859 214.885C177.885 214.885 179.91 214.885 181.996 214.885C181.996 216.755 181.996 218.624 181.996 220.55C180.283 220.706 178.569 220.862 176.804 221.022C176.823 221.86 176.842 222.697 176.863 223.56C176.896 224.987 176.896 224.987 176.804 226.215C175.859 227.159 175.859 227.159 174.266 227.248C172.555 227.159 172.555 227.159 170.667 226.687C170.822 230.426 170.978 234.165 171.139 238.017C169.425 238.017 167.711 238.017 165.946 238.017C165.15 237.222 165.412 236.229 165.411 235.14C165.41 234.411 165.41 234.411 165.409 233.667C165.411 233.155 165.413 232.643 165.415 232.116C165.413 231.604 165.411 231.092 165.409 230.565C165.41 230.079 165.41 229.593 165.411 229.092C165.411 228.642 165.412 228.193 165.413 227.73C165.474 226.687 165.474 226.687 165.946 226.215C166.742 226.181 167.539 226.175 168.336 226.186C168.77 226.19 169.203 226.194 169.65 226.198C169.986 226.204 170.321 226.209 170.667 226.215C170.661 225.846 170.656 225.476 170.65 225.096C170.646 224.618 170.641 224.14 170.637 223.648C170.632 223.172 170.626 222.695 170.62 222.204C170.667 221.022 170.667 221.022 171.139 220.55C172.714 220.483 174.283 220.53 175.859 220.55C175.859 218.681 175.859 216.811 175.859 214.885Z" fill="#F7ECDC"/>
<path d="M165.476 158.706C167.346 158.706 169.215 158.706 171.141 158.706C171.141 160.42 171.141 162.134 171.141 163.899C173.01 163.899 174.88 163.899 176.806 163.899C176.806 162.186 176.806 160.472 176.806 158.706C178.675 158.706 180.545 158.706 182.471 158.706C182.471 160.576 182.471 162.445 182.471 164.371C180.757 164.371 179.044 164.371 177.278 164.371C177.298 165.131 177.317 165.89 177.337 166.673C177.37 167.967 177.37 167.967 177.278 169.092C176.334 170.036 176.334 170.036 175.382 170.151C175.001 170.149 174.619 170.147 174.226 170.145C173.601 170.144 173.601 170.144 172.964 170.142C172.31 170.134 172.31 170.134 171.643 170.125C170.991 170.124 170.991 170.124 170.327 170.124C167.091 170.103 167.091 170.103 165.476 169.564C165.476 165.981 165.476 162.398 165.476 158.706Z" fill="#F5EEE3"/>
<path d="M160.278 192.225C162.078 192.212 163.878 192.203 165.677 192.195C166.191 192.192 166.705 192.188 167.235 192.183C167.723 192.182 168.211 192.18 168.715 192.179C169.167 192.176 169.619 192.174 170.085 192.171C171.136 192.225 171.136 192.225 171.608 192.697C171.654 193.483 171.669 194.27 171.667 195.057C171.669 195.7 171.669 195.7 171.671 196.356C171.608 197.418 171.608 197.418 171.136 197.89C169.252 198.109 167.363 198.223 165.471 198.362C165.471 200.231 165.471 202.101 165.471 204.027C163.75 204.04 162.029 204.049 160.307 204.056C159.57 204.062 159.57 204.062 158.818 204.068C158.351 204.07 157.884 204.072 157.403 204.073C156.754 204.077 156.754 204.077 156.092 204.081C155.085 204.027 155.085 204.027 154.613 203.555C154.566 202.69 154.552 201.824 154.554 200.958C154.553 200.486 154.552 200.014 154.55 199.527C154.613 198.362 154.613 198.362 155.085 197.89C156.817 197.822 158.544 197.87 160.278 197.89C160.278 196.021 160.278 194.151 160.278 192.225Z" fill="#F7ECDD"/>
<path d="M169.723 109.609C169.957 110.076 169.957 110.076 170.195 110.553C169.767 110.748 169.34 110.943 168.899 111.143C160.264 115.186 155.829 121.559 152.581 130.44C152.318 131.199 152.055 131.959 151.784 132.741C149.759 132.741 147.734 132.741 145.647 132.741C147.213 126.57 150.086 121.63 154.616 117.162C154.917 116.857 155.218 116.551 155.527 116.237C159.517 112.446 164.409 110.683 169.723 109.609Z" fill="#1E3A8A"/>
<path d="M163.953 72.7257C164.433 72.7243 164.914 72.7228 165.409 72.7212C165.932 72.7222 166.454 72.7231 166.993 72.7241C167.525 72.7237 168.058 72.7232 168.607 72.7228C169.735 72.7224 170.864 72.7233 171.993 72.7253C173.727 72.7278 175.462 72.7253 177.196 72.7223C178.29 72.7226 179.383 72.7232 180.477 72.7241C181.261 72.7227 181.261 72.7227 182.061 72.7212C182.541 72.7227 183.022 72.7242 183.517 72.7257C184.154 72.7263 184.154 72.7263 184.805 72.7269C185.773 72.7868 185.773 72.7868 186.245 73.2589C186.333 74.6456 186.333 74.6456 186.245 76.0914C185.068 77.2681 184.708 77.1547 183.085 77.1577C182.395 77.1622 182.395 77.1622 181.691 77.1667C180.944 77.1639 180.944 77.1639 180.182 77.1609C179.672 77.1618 179.162 77.1628 178.637 77.1637C177.557 77.1643 176.478 77.1626 175.398 77.1586C173.742 77.1536 172.085 77.1586 170.428 77.1646C169.381 77.164 168.335 77.1628 167.288 77.1609C166.79 77.1629 166.292 77.1648 165.778 77.1667C165.318 77.1638 164.858 77.1608 164.384 77.1577C163.978 77.157 163.572 77.1562 163.154 77.1554C162.169 77.0355 162.169 77.0356 161.225 76.0914C161.136 74.6456 161.136 74.6456 161.225 73.2589C161.999 72.4843 162.886 72.7267 163.953 72.7257Z" fill="#1E3A8A"/>
<path d="M143.286 192.224C147.024 192.224 150.763 192.224 154.615 192.224C154.615 194.094 154.615 195.963 154.615 197.889C151.004 198.479 147.405 198.404 143.758 198.361C143.758 200.075 143.758 201.789 143.758 203.554C141.715 204.065 140.185 204.095 138.093 204.026C137.621 203.554 137.621 203.554 137.558 202.509C137.559 202.085 137.56 201.66 137.562 201.223C137.56 200.8 137.559 200.378 137.558 199.942C137.621 198.833 137.621 198.833 138.093 197.889C139.806 197.889 141.52 197.889 143.286 197.889C143.286 196.02 143.286 194.15 143.286 192.224Z" fill="#F7EDE0"/>
<path d="M198.046 226.215C200.071 226.215 202.096 226.215 204.183 226.215C204.183 228.085 204.183 229.954 204.183 231.88C207.766 231.88 211.349 231.88 215.04 231.88C215.04 233.75 215.04 235.619 215.04 237.545C211.302 237.545 207.563 237.545 203.711 237.545C203.711 235.676 203.711 233.806 203.711 231.88C202.44 231.895 202.44 231.895 201.144 231.91C200.268 231.92 199.392 231.914 198.518 231.88C198.046 231.408 198.046 231.408 198 230.226C198.015 228.889 198.03 227.552 198.046 226.215Z" fill="#F7ECDD"/>
<path d="M177.987 226.641C179.324 226.656 180.661 226.671 181.998 226.687C181.998 228.4 181.998 230.114 181.998 231.88C183.712 231.88 185.425 231.88 187.191 231.88C187.191 233.749 187.191 235.619 187.191 237.545C185.47 237.557 183.749 237.567 182.028 237.574C181.29 237.58 181.29 237.58 180.538 237.586C180.071 237.588 179.604 237.589 179.123 237.591C178.474 237.594 178.474 237.594 177.812 237.598C176.805 237.545 176.805 237.545 176.333 237.073C176.286 236.341 176.271 235.607 176.27 234.874C176.27 234.431 176.269 233.987 176.269 233.53C176.27 233.063 176.272 232.597 176.274 232.116C176.272 231.649 176.27 231.182 176.269 230.701C176.269 230.258 176.27 229.814 176.27 229.357C176.271 228.947 176.271 228.537 176.272 228.115C176.364 226.682 176.544 226.697 177.987 226.641Z" fill="#F4EDE1"/>
<path d="M142.341 219.134C145.301 219.134 148.261 219.134 151.31 219.134C151.31 222.254 151.183 225.04 150.838 228.103C148.034 228.103 145.23 228.103 142.341 228.103C142.341 225.143 142.341 222.184 142.341 219.134Z" fill="#F5EEE3"/>
<path d="M142.341 168.148C148.714 168.089 148.714 168.148 150.838 168.148C150.838 170.952 150.838 174.228 150.838 177.117C148.034 177.117 145.23 177.117 142.341 177.117C142.341 174.157 142.341 171.197 142.341 168.148Z" fill="#F3ECE1"/>
<path d="M203.71 214.884C207.721 214.838 207.721 214.838 208.903 214.884C209.375 215.357 209.375 215.357 209.422 216.539C209.406 217.875 209.391 219.212 209.375 220.549C211.245 220.549 213.114 220.549 215.04 220.549C215.04 222.419 215.04 224.288 215.04 226.214C213.015 226.214 210.99 226.214 208.903 226.214C208.903 224.501 208.903 222.787 208.903 221.021C208.222 221.031 207.54 221.041 206.838 221.051C204.773 221.08 204.773 221.08 203.71 220.549C203.71 218.68 203.71 216.811 203.71 214.884Z" fill="#E9E9E4"/>
<path d="M196.628 168.619C199.276 168.619 201.925 168.619 204.653 168.619C204.663 169.934 204.673 171.248 204.683 172.603C204.687 173.017 204.691 173.432 204.696 173.859C204.699 174.788 204.677 176.235 204.653 177.163C204.083 177.163 204.181 177.171 202.586 177.163C201.928 177.16 201.27 177.154 200.611 177.146C200.276 177.144 199.94 177.142 199.594 177.14C198.763 177.134 197.459 177.172 196.628 177.163C196.598 175.465 196.577 173.848 196.599 172.071C196.608 170.932 196.618 169.793 196.628 168.619Z" fill="#F7EDDE"/>
<path d="M167.423 209.11C167.802 209.117 168.181 209.124 168.572 209.131C169.142 209.135 169.142 209.135 169.724 209.14C170.667 209.219 170.667 209.219 171.139 209.691C171.18 210.498 171.189 211.305 171.185 212.113C171.183 212.601 171.182 213.089 171.18 213.592C171.176 214.106 171.172 214.62 171.168 215.15C171.166 215.666 171.164 216.181 171.162 216.713C171.156 217.991 171.148 219.27 171.139 220.549C169.269 220.549 167.4 220.549 165.474 220.549C165.449 218.838 165.43 217.127 165.415 215.415C165.407 214.928 165.399 214.44 165.391 213.938C165.388 213.473 165.385 213.007 165.382 212.528C165.377 212.097 165.372 211.667 165.367 211.224C165.515 209.761 165.95 209.27 167.423 209.11Z" fill="#F4EDE2"/>
<path d="M210.324 199.306C211.917 199.217 211.917 199.217 213.628 199.306C214.786 201.043 214.682 201.89 214.664 203.958C214.663 204.271 214.662 204.583 214.66 204.905C214.655 205.9 214.643 206.896 214.631 207.892C214.627 208.567 214.622 209.243 214.618 209.919C214.608 211.574 214.592 213.229 214.572 214.884C212.859 214.884 211.145 214.884 209.379 214.884C209.691 214.573 210.003 214.261 210.324 213.94C210.455 212.426 210.455 212.426 210.416 210.647C210.414 210.323 210.413 210 210.412 209.666C210.406 208.632 210.395 207.598 210.383 206.564C210.378 205.863 210.374 205.162 210.37 204.462C210.359 202.743 210.343 201.024 210.324 199.306Z" fill="#F9F1E4"/>
<path d="M143.286 196.946C145.778 197.257 148.271 197.569 150.839 197.89C150.839 198.046 150.839 198.201 150.839 198.362C148.502 198.362 146.165 198.362 143.758 198.362C143.758 200.076 143.758 201.789 143.758 203.555C141.715 204.065 140.185 204.095 138.093 204.027C137.621 203.555 137.621 203.555 137.558 202.509C137.559 202.085 137.56 201.661 137.562 201.224C137.56 200.801 137.559 200.378 137.558 199.942C137.621 198.834 137.621 198.834 138.093 197.89C139.806 197.89 141.52 197.89 143.286 197.89C143.286 197.578 143.286 197.267 143.286 196.946Z" fill="#F6EBDD"/>
<path d="M198.045 203.555C200.07 203.555 202.095 203.555 204.182 203.555C204.228 207.934 204.228 207.934 204.182 209.22C203.71 209.692 203.71 209.692 202.544 209.755C201.836 209.753 201.836 209.753 201.113 209.751C200.641 209.752 200.169 209.753 199.682 209.755C198.517 209.692 198.517 209.692 198.045 209.22C197.977 207.33 198.025 205.446 198.045 203.555Z" fill="#F5EADB"/>
<path d="M176.801 169.564C178.671 169.72 180.54 169.875 182.466 170.036C182.466 172.061 182.466 174.086 182.466 176.173C180.597 176.173 178.727 176.173 176.801 176.173C176.801 173.992 176.801 171.811 176.801 169.564Z" fill="#FAF4E9"/>
<path d="M188.845 226.169C189.559 226.177 189.559 226.177 190.289 226.186C190.766 226.19 191.244 226.194 191.736 226.198C192.29 226.207 192.29 226.207 192.856 226.215C192.947 227.07 193.035 227.926 193.121 228.782C193.17 229.258 193.22 229.735 193.27 230.226C193.299 230.811 193.299 230.811 193.328 231.408C192.856 231.88 192.856 231.88 191.69 231.943C190.982 231.941 190.982 231.941 190.259 231.939C189.787 231.94 189.315 231.941 188.828 231.943C187.663 231.88 187.663 231.88 187.191 231.408C187.144 230.622 187.129 229.835 187.132 229.048C187.13 228.619 187.129 228.191 187.128 227.749C187.217 226.241 187.327 226.228 188.845 226.169Z" fill="#F6EEE2"/>
<path d="M171.137 180.894C172.851 180.894 174.565 180.894 176.33 180.894C176.33 182.919 176.33 184.945 176.33 187.031C172.688 187.077 172.688 187.077 171.609 187.031C171.137 186.559 171.137 186.559 171.091 185.274C171.097 184.754 171.102 184.233 171.108 183.697C171.112 183.176 171.116 182.654 171.121 182.117C171.126 181.713 171.132 181.31 171.137 180.894Z" fill="#F7F0E5"/>
<path d="M132.427 192.224C133.282 192.212 134.138 192.203 134.994 192.195C135.47 192.189 135.947 192.184 136.438 192.178C137.62 192.224 137.62 192.224 138.092 192.697C138.126 193.571 138.131 194.447 138.121 195.322C138.117 195.8 138.113 196.278 138.108 196.77C138.103 197.139 138.097 197.509 138.092 197.889C137.315 197.902 136.538 197.911 135.761 197.919C135.328 197.924 134.895 197.93 134.45 197.936C133.371 197.889 133.371 197.889 132.899 197.417C132.789 196.544 132.704 195.668 132.633 194.791C132.594 194.314 132.554 193.836 132.513 193.344C132.485 192.974 132.456 192.605 132.427 192.224Z" fill="#F4EFE5"/>
<path d="M165.476 175.23C167.19 175.23 168.903 175.23 170.669 175.23C171.084 179.24 171.084 179.24 171.141 180.422C170.669 180.895 170.669 180.895 169.487 180.941C168.15 180.925 166.813 180.91 165.476 180.895C165.476 179.025 165.476 177.156 165.476 175.23Z" fill="#F8F2E7"/>
<path d="M187.19 192.224C188.904 192.224 190.618 192.224 192.383 192.224C192.383 194.094 192.383 195.963 192.383 197.889C190.67 197.889 188.956 197.889 187.19 197.889C187.19 196.02 187.19 194.15 187.19 192.224Z" fill="#F5EADA"/>
<path d="M194.404 231.834C195.618 231.849 196.832 231.864 198.046 231.88C198.046 233.749 198.046 235.619 198.046 237.545C194.404 237.591 194.404 237.591 193.325 237.545C192.853 237.073 192.853 237.073 192.79 236.01C192.791 235.582 192.792 235.154 192.794 234.712C192.793 234.284 192.791 233.855 192.79 233.414C192.875 231.969 192.956 231.895 194.404 231.834Z" fill="#F8F2E8"/>
<path d="M170.195 218.189C171.139 220.019 171.139 220.019 171.139 220.55C169.581 220.394 168.024 220.238 166.418 220.078C166.574 219.766 166.73 219.455 166.891 219.134C167.825 219.134 168.76 219.134 169.723 219.134C169.879 218.822 170.035 218.51 170.195 218.189Z" fill="#EEE6DA"/>
<ellipse cx="173.735" cy="97.8066" rx="4.95684" ry="4.7208" fill="#F4EDE2"/>
<path d="M466.392 270.772C458.589 270.772 452.635 268.616 448.528 264.304C444.421 259.992 442.368 253.935 442.368 246.132V90.284H387.852C381.487 90.284 376.559 88.5387 373.068 85.048C369.577 81.5573 367.832 76.732 367.832 70.572C367.832 64.2067 369.577 59.3813 373.068 56.096C376.559 52.6053 381.487 50.86 387.852 50.86H544.624C550.989 50.86 555.917 52.6053 559.408 56.096C562.899 59.3813 564.644 64.2067 564.644 70.572C564.644 76.732 562.899 81.5573 559.408 85.048C555.917 88.5387 550.989 90.284 544.624 90.284H490.108V246.132C490.108 253.935 488.055 259.992 483.948 264.304C480.047 268.616 474.195 270.772 466.392 270.772ZM607.99 271.388C596.902 271.388 586.943 269.232 578.114 264.92C569.285 260.608 562.406 254.756 557.478 247.364C552.55 239.972 550.086 231.656 550.086 222.416C550.086 211.328 552.961 202.601 558.71 196.236C564.459 189.665 573.802 185.045 586.738 182.376C599.674 179.501 616.819 178.064 638.174 178.064H654.498V202.088H638.482C628.01 202.088 619.489 202.704 612.918 203.936C606.553 204.963 601.933 206.811 599.058 209.48C596.389 212.149 595.054 215.845 595.054 220.568C595.054 226.317 597.005 231.04 600.906 234.736C605.013 238.432 610.865 240.28 618.462 240.28C624.417 240.28 629.653 238.945 634.17 236.276C638.893 233.401 642.589 229.603 645.258 224.88C647.927 219.952 649.262 214.408 649.262 208.248V172.828C649.262 163.793 647.209 157.428 643.102 153.732C638.995 149.831 632.014 147.88 622.158 147.88C616.614 147.88 610.557 148.599 603.986 150.036C597.621 151.268 590.537 153.424 582.734 156.504C578.217 158.557 574.213 159.071 570.722 158.044C567.231 156.812 564.562 154.759 562.714 151.884C560.866 148.804 559.942 145.519 559.942 142.028C559.942 138.332 560.969 134.841 563.022 131.556C565.075 128.065 568.463 125.499 573.186 123.856C582.837 119.955 591.871 117.285 600.29 115.848C608.914 114.411 616.819 113.692 624.006 113.692C639.817 113.692 652.753 116.053 662.814 120.776C673.081 125.293 680.781 132.377 685.914 142.028C691.047 151.473 693.614 163.691 693.614 178.68V247.056C693.614 254.653 691.766 260.505 688.07 264.612C684.374 268.719 679.035 270.772 672.054 270.772C665.073 270.772 659.631 268.719 655.73 264.612C652.034 260.505 650.186 254.653 650.186 247.056V235.66L652.342 237.508C651.11 244.489 648.441 250.547 644.334 255.68C640.433 260.608 635.402 264.509 629.242 267.384C623.082 270.053 615.998 271.388 607.99 271.388ZM821.631 271.388C809.517 271.388 798.737 268.411 789.291 262.456C780.051 256.296 773.891 248.185 770.811 238.124L774.199 227.96V247.056C774.199 254.653 772.249 260.505 768.347 264.612C764.446 268.719 758.799 270.772 751.407 270.772C744.015 270.772 738.266 268.719 734.159 264.612C730.258 260.505 728.307 254.653 728.307 247.056V71.804C728.307 64.0013 730.258 58.1493 734.159 54.248C738.266 50.1413 744.118 48.088 751.715 48.088C759.107 48.088 764.754 50.1413 768.655 54.248C772.762 58.1493 774.815 64.0013 774.815 71.804V144.8H771.119C774.405 135.56 780.667 128.065 789.907 122.316C799.147 116.567 809.722 113.692 821.631 113.692C834.978 113.692 846.579 116.875 856.435 123.24C866.291 129.605 873.991 138.64 879.535 150.344C885.079 162.048 887.851 176.011 887.851 192.232C887.851 208.453 885.079 222.519 879.535 234.428C873.991 246.337 866.189 255.475 856.127 261.84C846.271 268.205 834.773 271.388 821.631 271.388ZM807.771 236.584C814.342 236.584 820.091 234.941 825.019 231.656C830.153 228.371 834.054 223.545 836.723 217.18C839.598 210.609 841.035 202.293 841.035 192.232C841.035 177.243 837.955 166.257 831.795 159.276C825.635 152.089 817.627 148.496 807.771 148.496C801.201 148.496 795.349 150.036 790.215 153.116C785.287 156.196 781.386 161.021 778.511 167.592C775.637 173.957 774.199 182.171 774.199 192.232C774.199 207.221 777.279 218.412 783.439 225.804C789.599 232.991 797.71 236.584 807.771 236.584Z" fill="#1E3A8A"/>
<path d="M974.2 271.388C965.165 271.388 955.822 270.567 946.172 268.924C936.726 267.281 928.102 264.509 920.3 260.608C916.193 258.555 913.216 255.988 911.368 252.908C909.725 249.623 909.006 246.337 909.212 243.052C909.417 239.767 910.444 236.789 912.292 234.12C914.345 231.451 916.912 229.705 919.992 228.884C923.277 227.857 926.87 228.165 930.772 229.808C939.19 233.299 946.89 235.763 953.872 237.2C960.853 238.637 967.732 239.356 974.508 239.356C983.337 239.356 989.702 238.021 993.604 235.352C997.71 232.477 999.764 228.781 999.764 224.264C999.764 220.157 998.429 217.077 995.76 215.024C993.09 212.971 989.189 211.533 984.056 210.712L951.716 204.86C938.985 202.601 929.129 197.981 922.148 191C915.372 183.813 911.984 174.676 911.984 163.588C911.984 153.321 914.858 144.492 920.608 137.1C926.357 129.503 934.262 123.753 944.324 119.852C954.59 115.745 966.192 113.692 979.128 113.692C988.368 113.692 996.889 114.513 1004.69 116.156C1012.49 117.799 1019.99 120.468 1027.18 124.164C1030.87 126.012 1033.44 128.476 1034.88 131.556C1036.52 134.636 1037.03 137.819 1036.42 141.104C1036 144.389 1034.77 147.367 1032.72 150.036C1030.67 152.705 1028 154.451 1024.71 155.272C1021.63 156.093 1018.04 155.683 1013.93 154.04C1007.36 150.96 1001.3 148.804 995.76 147.572C990.216 146.135 984.877 145.416 979.744 145.416C970.504 145.416 963.83 146.956 959.724 150.036C955.617 152.911 953.564 156.607 953.564 161.124C953.564 164.615 954.693 167.592 956.952 170.056C959.416 172.315 963.112 173.855 968.04 174.676L1000.38 180.528C1013.73 182.787 1023.89 187.304 1030.87 194.08C1037.85 200.651 1041.34 209.685 1041.34 221.184C1041.34 236.789 1035.18 249.109 1022.86 258.144C1010.75 266.973 994.528 271.388 974.2 271.388ZM1106.15 326.212C1100.81 326.212 1096.4 324.775 1092.91 321.9C1089.42 319.025 1087.37 315.227 1086.75 310.504C1086.13 305.987 1086.95 301.161 1089.21 296.028L1109.85 250.444V269.54L1055.33 144.492C1053.28 139.153 1052.56 134.225 1053.18 129.708C1054 124.985 1056.26 121.289 1059.95 118.62C1063.85 115.745 1069.19 114.308 1075.97 114.308C1081.51 114.308 1085.93 115.643 1089.21 118.312C1092.7 120.776 1095.89 125.601 1098.76 132.788L1135.11 225.188H1125.25L1162.83 132.48C1165.7 125.499 1168.88 120.776 1172.37 118.312C1176.07 115.643 1181 114.308 1187.16 114.308C1192.5 114.308 1196.71 115.745 1199.79 118.62C1203.07 121.289 1205.02 124.883 1205.64 129.4C1206.46 133.917 1205.64 138.845 1203.17 144.184L1130.79 308.348C1127.71 315.329 1124.22 320.052 1120.32 322.516C1116.63 324.98 1111.9 326.212 1106.15 326.212Z" fill="#F97316"/>
</svg>
